<svg id="Calque_1" data-name="Calque 1" xmlns="http://www.w3.org/2000/svg" viewBox="0 0 202.7 191.01"><defs><style>.cls-1{fill:#fff;}.cls-2{fill:#f3a1a9;}</style></defs><title>logo_baby</title><path class="cls-1" d="M234.57,122.88a19.64,19.64,0,0,0-16.33-19.35A84,84,0,0,0,62.18,123c-.49,0-1-.07-1.46-.07a19.65,19.65,0,1,0,0,39.29c.49,0,1,0,1.46-.07a84,84,0,0,0,165.66-19.58c0-1.59-.05-3.17-.14-4.74A19.58,19.58,0,0,0,234.57,122.88Z" transform="translate(-36.47 -40.1)"/><path class="cls-2" d="M143.85,231.11a88.24,88.24,0,0,1-85.23-64.43,24.25,24.25,0,0,1,0-48.31A88.59,88.59,0,0,1,221.29,99.49a24.22,24.22,0,0,1,11.1,40.18c0,1,.05,1.9.05,2.85A88.69,88.69,0,0,1,143.85,231.11ZM65.66,157.22l1,3.81a79.39,79.39,0,0,0,156.59-18.51c0-1.51-.05-3-.13-4.49l-.12-2.26,1.72-1.48a15,15,0,0,0-7.24-26.23l-2.24-.38-1.06-2A79.39,79.39,0,0,0,66.65,124l-.91,3.81-3.9-.29c-.43,0-.77-.06-1.12-.06a15,15,0,1,0,0,30.09c.35,0,.69,0,1-.06Z" transform="translate(-36.47 -40.1)"/><path class="cls-2" d="M98.58,144.42a22.37,22.37,0,0,1,23.75-6.24c7.08,2.23,10.11-8.87,3.06-11.09a33.86,33.86,0,0,0-34.94,9.2c-5,5.41,3.07,13.56,8.13,8.13Z" transform="translate(-36.47 -40.1)"/><path class="cls-2" d="M168.49,131.24a34.9,34.9,0,0,1,23.38.95c6.92,2.65,9.91-8.47,3.06-11.09a45.18,45.18,0,0,0-29.49-.95c-7.07,2.15-4.05,13.26,3.05,11.09Z" transform="translate(-36.47 -40.1)"/><path class="cls-2" d="M125.71,180c11.52,5.91,25.14,5.47,35.9-2,6.06-4.17.32-14.14-5.8-9.93-7.33,5.05-16.25,6.07-24.29,2-6.57-3.38-12.4,6.54-5.81,9.93Z" transform="translate(-36.47 -40.1)"/><path class="cls-2" d="M115.17,59.91c-8,6.87-14.76,20.23-1.93,26.45,11,5.31,27.66.89,35.12-8.43,7.19-9,6.18-21.89-3.21-28.74-12.57-9.18-29.86-10.68-44.66-7.71-5.43,1.09-3.13,9.41,2.3,8.32a52,52,0,0,1,22.39.13c6.37,1.49,17.23,4.63,19.14,12,2.28,8.82-6.53,15.26-13.9,17-2.48.58-6.64,1.36-9.35.69-9.39-2.34-4.62-9.53.2-13.66,4.23-3.61-1.9-9.69-6.1-6.1Z" transform="translate(-36.47 -40.1)"/></svg>